<svg xmlns="http://www.w3.org/2000/svg" width="1200" height="630" viewBox="0 0 1200 630" role="img" aria-labelledby="title desc">
  <title id="title">Add tests</title>
  <desc id="desc">Editorial cover illustration for Add tests</desc>
  <defs>
    <pattern id="grid" width="32" height="32" patternUnits="userSpaceOnUse">
      <path d="M32 0H0V32" fill="none" stroke="#ddd7cd" stroke-width="1"/>
    </pattern>
  </defs>
  <rect width="1200" height="630" fill="#f4f0e8"/>
  <rect width="1200" height="630" fill="url(#grid)"/>
  <rect x="48" y="48" width="1104" height="534" fill="none" stroke="#191817" stroke-width="8"/>
  <rect x="84" y="88" width="290" height="38" fill="#62cbc9"/>
  <text x="100" y="115" fill="#191817" font-family="Arial, Helvetica, sans-serif" font-size="20" font-weight="700" letter-spacing="2">FRONTEND FOUNDATIONS</text>
  <text x="84" y="242" fill="#191817" font-family="Arial, Helvetica, sans-serif" font-size="68" font-weight="700" letter-spacing="0"><tspan x="84" dy="0">Add</tspan><tspan x="84" dy="82">tests</tspan></text>
  <path d="M84 500h540" stroke="#191817" stroke-width="8"/>
  <circle cx="104" cy="540" r="12" fill="#62cbc9" stroke="#191817" stroke-width="5"/>
  <path d="M136 540h190" stroke="#191817" stroke-width="6"/>
  <g transform="translate(200 20) scale(0.9)">
    <path d="M822 132h96M846 132v110l-104 178c-20 34 6 70 46 70h164c40 0 66-36 46-70L894 242V132" fill="#f4f0e8" stroke="#191817" stroke-width="11"/><path d="M782 386h176l40 68c10 18-2 36-24 36H766c-22 0-34-18-24-36Z" fill="#62cbc9"/><circle cx="850" cy="422" r="13"/><circle cx="912" cy="450" r="10"/>
  </g>
</svg>
